<?xml version="1.0" encoding="UTF-8" standalone="no"?>
<svg
   xmlns:dc="http://purl.org/dc/elements/1.1/"
   xmlns:cc="http://creativecommons.org/ns#"
   xmlns:rdf="http://www.w3.org/1999/02/22-rdf-syntax-ns#"
   xmlns:svg="http://www.w3.org/2000/svg"
   xmlns="http://www.w3.org/2000/svg"
   xmlns:sodipodi="http://sodipodi.sourceforge.net/DTD/sodipodi-0.dtd"
   xmlns:inkscape="http://www.inkscape.org/namespaces/inkscape"
   version="1.1"
   id="svg2"
   xml:space="preserve"
   width="628.23999"
   height="586.54669"
   viewBox="0 0 628.23999 586.54669"
   sodipodi:docname="3275433.eps"><metadata
     id="metadata8"><rdf:RDF><cc:Work
         rdf:about=""><dc:format>image/svg+xml</dc:format><dc:type
           rdf:resource="http://purl.org/dc/dcmitype/StillImage" /></cc:Work></rdf:RDF></metadata><defs
     id="defs6" /><sodipodi:namedview
     pagecolor="#ffffff"
     bordercolor="#666666"
     borderopacity="1"
     objecttolerance="10"
     gridtolerance="10"
     guidetolerance="10"
     inkscape:pageopacity="0"
     inkscape:pageshadow="2"
     inkscape:window-width="640"
     inkscape:window-height="480"
     id="namedview4" /><g
     id="g10"
     inkscape:groupmode="layer"
     inkscape:label="ink_ext_XXXXXX"
     transform="matrix(1.3333333,0,0,-1.3333333,0,586.54667)"><g
       id="g12"
       transform="scale(0.1)"><path
         d="m 4021.78,2321.97 c 920.03,-531.18 920.03,-1392.4 -0.01,-1923.579 -920.04,-531.192 -2411.72,-531.192 -3331.75,-0.012 -920.032,531.18 -920.032,1392.401 0.011,1923.591 920.039,531.18 2411.719,531.18 3331.749,0"
         style="fill:#ededeb;fill-opacity:1;fill-rule:nonzero;stroke:none"
         id="path14" /><path
         d="m 2442.83,1130.12 c 317.26,-183.171 317.26,-480.159 -0.01,-663.331 -317.26,-183.168 -831.65,-183.168 -1148.91,0 -317.265,183.172 -317.265,480.16 0,663.331 317.27,183.17 831.65,183.17 1148.92,0"
         style="fill:#dadbd8;fill-opacity:1;fill-rule:nonzero;stroke:none"
         id="path16" /><path
         d="m 4178.65,1385.26 -95.26,55 c 0,0 -23.33,204.02 -7.8,362.02 21.81,222.03 165.19,489.17 336.26,426.44 171.05,-62.75 -78.44,-288.86 -133.97,-477.17 -55.54,-188.32 -99.23,-366.29 -99.23,-366.29"
         style="fill:#ef2b2b;fill-opacity:1;fill-rule:nonzero;stroke:none"
         id="path18" /><path
         d="m 4178.65,1385.26 -95.26,55 c 0,0 -13.12,114.76 -13.13,238.8 -0.01,41.34 1.45,83.72 5.33,123.22 19.61,199.63 137.51,435.74 285.43,435.74 16.6,0 33.57,-2.97 50.83,-9.3 42.51,-15.6 59.05,-41.28 59.04,-73.97 -0.02,-98.84 -151.28,-261.69 -193.01,-403.2 -55.54,-188.32 -99.23,-366.29 -99.23,-366.29"
         style="fill:#ff2b2b;fill-opacity:1;fill-rule:nonzero;stroke:none"
         id="path20" /><path
         d="m 4128.56,1408.41 h 0.19 c 3.18,0.11 5.68,2.78 5.58,5.97 -16.74,493.33 228.84,741.49 231.32,743.93 2.27,2.25 2.3,5.89 0.06,8.15 -2.26,2.28 -5.91,2.3 -8.15,0.07 -2.53,-2.49 -251.67,-254.21 -234.77,-752.55 0.11,-3.12 2.67,-5.57 5.77,-5.57"
         style="fill:#ffffff;fill-opacity:1;fill-rule:nonzero;stroke:none"
         id="path22" /><path
         d="m 4238.56,1350.96 -67.8,39.14 c 0,0 -11.52,140 57.11,310.07 59.76,148.07 208.03,270.9 282.6,245.08 74.56,-25.81 72.71,-78.69 36.36,-134.16 -36.36,-55.47 -257.55,-187.68 -308.27,-460.13"
         style="fill:#ef2b2b;fill-opacity:1;fill-rule:nonzero;stroke:none"
         id="path24" /><path
         d="m 4202.79,1365.84 h 0.03 c 3.19,0.02 5.76,2.6 5.75,5.79 -1.35,311.92 291.53,522.74 294.5,524.84 2.59,1.83 3.21,5.43 1.36,8.04 -1.81,2.58 -5.41,3.23 -8.03,1.36 -3,-2.12 -300.74,-216.43 -299.37,-534.29 0.01,-3.17 2.59,-5.74 5.76,-5.74"
         style="fill:#ffffff;fill-opacity:1;fill-rule:nonzero;stroke:none"
         id="path26" /><path
         d="m 652.5,1507.83 87.961,59.36 c 0,0 38.719,230.46 2.742,432.89 -50.582,284.61 -246.859,379.32 -316.902,349.58 -70.047,-29.74 -85.008,-114.63 45.672,-277.11 77.101,-95.87 177.828,-299.73 180.527,-564.72"
         style="fill:#ef2b2b;fill-opacity:1;fill-rule:nonzero;stroke:none"
         id="path28" /><path
         d="m 652.5,1507.83 c -2.699,264.99 -103.426,468.85 -180.527,564.72 -70.446,87.59 -98.567,152.63 -98.555,198.64 0.012,39.34 20.598,64.76 52.883,78.47 8.121,3.45 17.937,5.23 29.031,5.23 84.57,0 243.156,-103.21 287.871,-354.81 11.418,-64.25 15.313,-131.32 15.309,-192.95 -0.008,-132.55 -18.051,-239.94 -18.051,-239.94 L 652.5,1507.83"
         style="fill:#ff2b2b;fill-opacity:1;fill-rule:nonzero;stroke:none"
         id="path30" /><path
         d="m 682.707,1621.83 -0.887,0.05 c -3.488,0.41 -5.996,3.58 -5.574,7.07 31.774,267.98 -81.363,558.72 -204.402,674.4 -2.567,2.41 -2.692,6.45 -0.278,9.01 2.418,2.54 6.446,2.69 9.012,0.27 125.281,-117.78 240.567,-413.25 208.32,-685.17 -0.378,-3.2 -3.066,-5.57 -6.191,-5.63"
         style="fill:#ffffff;fill-opacity:1;fill-rule:nonzero;stroke:none"
         id="path32" /><path
         d="m 422.094,1352.42 c -13.957,-8.38 -54.766,21.89 -66.059,29.15 -19.332,12.44 -35.144,30.27 -45.808,50.58 -12.418,23.64 -15.918,49.16 -12.692,75.63 1.68,13.73 5.254,27.15 8.817,40.51 3.496,13.13 7,26.25 10.496,39.37 3.457,12.95 6.937,26.34 4.972,39.59 -3.937,26.71 -28.062,45.01 -49.984,60.77 -24.234,17.43 -49.574,40.56 -50.059,72.8 -0.375,24.87 12.063,48.22 27.094,68.04 15.035,19.81 32.996,37.41 46.524,58.28 9.742,15.03 17.226,32.61 15.253,50.4 -1.222,11.06 -6.023,21.41 -11.511,31.08 -11.789,20.77 -27.176,39.7 -35.461,62.1 -8.285,22.39 -7.707,50.46 9.578,66.93 14.187,13.52 35.613,15.78 55.195,14.87 18.11,-0.85 35.938,-8.66 51.934,-17.16 51.722,-27.47 82.097,-87.51 136.82,-108.35 21.11,-8.05 44.086,-9.45 66.035,-14.8 21.942,-5.35 44.418,-16.07 54.918,-36.07 20.703,-39.42 -15.343,-89.21 -0.515,-131.19 13.125,-37.16 49.742,-50.78 70.8,-84.09 9.211,-14.57 11.598,-31.57 10.489,-48.77 -1.875,-29.12 -5.715,-50.53 -19.043,-83.13 -11.008,-26.94 -43.703,-78.69 -43.703,-78.69 0,0 -231.95,-156.56 -234.09,-157.85"
         style="fill:#ef2b2b;fill-opacity:1;fill-rule:nonzero;stroke:none"
         id="path34" /><path
         d="m 557.281,1435.33 h -0.176 c -3.609,0.07 -6.39,3 -6.324,6.51 5.641,253.17 -118.945,530.15 -207.187,609.61 -2.614,2.35 -2.828,6.38 -0.473,9 2.363,2.62 6.383,2.82 9.004,0.48 90.016,-81.06 217.117,-362.64 211.41,-619.37 -0.082,-3.44 -2.855,-6.17 -6.254,-6.23"
         style="fill:#ffffff;fill-opacity:1;fill-rule:nonzero;stroke:none"
         id="path36" /><path
         d="m 510.637,1743.75 -1.887,0.25 c -81.758,23.56 -183.141,26.03 -184.148,26.05 -3.528,0.08 -6.309,3 -6.239,6.51 0.078,3.51 2.692,6.34 6.516,6.24 1.035,-0.03 104.023,-2.53 187.398,-26.56 3.379,-0.96 5.336,-4.5 4.36,-7.88 -0.797,-2.76 -3.274,-4.56 -6,-4.61"
         style="fill:#ffffff;fill-opacity:1;fill-rule:nonzero;stroke:none"
         id="path38" /><path
         d="m 2867.49,1681.84 -37.94,21.93 c -11.95,6.91 -21.64,23.71 -21.64,37.51 l -0.01,1575.17 c 0,13.81 9.69,30.59 21.65,37.5 L 3883,3962.16 c 11.96,6.9 31.35,6.9 43.3,0 l 37.95,-21.91 c 11.96,-6.89 21.65,-23.68 21.65,-37.49 V 2327.59 c 0,-13.81 -9.69,-30.6 -21.65,-37.5 L 2910.78,1681.83 c -11.95,-6.9 -31.34,-6.89 -43.29,0.01"
         style="fill:#33535f;fill-opacity:1;fill-rule:nonzero;stroke:none"
         id="path40" /><path
         d="m 3985.72,3906.27 c -1.5,11.2 -10.6,15.3 -21.5,9 l -1053.4,-608.3 c -6,-3.5 -11.3,-9.3 -15.3,-16.1 l -81.3,46.9 c 3.91,6.8 9.3,12.7 15.3,16.2 l 1053.5,608.2 c 11.9,6.9 31.3,6.9 43.3,0 l 37.9,-21.9 c 11,-6.3 20.1,-21 21.5,-34"
         style="fill:#33535f;fill-opacity:1;fill-rule:nonzero;stroke:none"
         id="path42" /><path
         d="m 2907.12,1680.1 c -12,-5.1 -28.8,-4.5 -39.6,1.7 l -38,22 c -11.9,6.9 -21.6,23.7 -21.6,37.5 v 1575.17 c 0,6.9 2.4,14.5 6.3,21.3 l 81.3,-46.9 c -4.01,-6.8 -6.4,-14.5 -6.4,-21.4 V 1694.3 c 0,-12.4 7.79,-18.1 18,-14.2"
         style="fill:#17282f;fill-opacity:1;fill-rule:nonzero;stroke:none"
         id="path44" /><path
         d="M 2889.13,3269.49 V 1694.33 c 0,-13.8 9.7,-19.4 21.65,-12.5 l 1053.47,608.26 c 11.96,6.9 21.65,23.69 21.65,37.5 v 1575.17 c 0,13.81 -9.69,19.4 -21.65,12.5 L 2910.78,3307 c -11.95,-6.91 -21.65,-23.7 -21.65,-37.51"
         style="fill:#273e47;fill-opacity:1;fill-rule:nonzero;stroke:none"
         id="path46" /><path
         d="m 2643.13,2669.07 c -13.61,8.1 -76.71,44 -80,45.9 -10,6.1 -13.61,20.9 -4.31,30.9 l 249.1,267.2 81.2,-46.6 -249,-267.3 c -9,-9.6 -6.11,-23.5 3.01,-30.1"
         style="fill:#33535f;fill-opacity:1;fill-rule:nonzero;stroke:none"
         id="path48" /><path
         d="M 2889.14,2966.43 2640.09,2699.2 c -12.48,-13.39 -1.94,-35.12 16.3,-33.62 l 232.74,19.17 0.01,281.68"
         style="fill:#273e47;fill-opacity:1;fill-rule:nonzero;stroke:none"
         id="path50" /><path
         d="m 3437.51,3447.27 c 122.78,70.89 222.31,13.43 222.31,-128.35 0,-141.76 -99.53,-314.16 -222.31,-385.04 -122.77,-70.89 -222.3,-13.42 -222.3,128.35 0,141.77 99.53,314.17 222.3,385.04"
         style="fill:#ef2b2b;fill-opacity:1;fill-rule:nonzero;stroke:none"
         id="path52" /><path
         d="m 3435.95,3335.7 c 39.83,23.01 72.13,4.36 72.13,-41.63 0,-46 -32.3,-101.93 -72.13,-124.93 -39.83,-22.99 -72.12,-4.35 -72.12,41.65 0,45.99 32.29,101.92 72.12,124.91"
         style="fill:#ffffff;fill-opacity:1;fill-rule:nonzero;stroke:none"
         id="path54" /><path
         d="m 3578.09,3090.45 c 0,75.57 -53.06,106.2 -118.49,68.42 l -40.92,-23.62 c -65.43,-37.78 -118.48,-129.67 -118.48,-205.23 v -20.61 c 11.81,-3.93 24.63,-5.87 38.19,-5.9 29.85,-0.06 63.46,9.78 99.12,30.37 53.34,30.8 102.28,80.77 140.58,139.05 v 17.52"
         style="fill:#ffffff;fill-opacity:1;fill-rule:nonzero;stroke:none"
         id="path56" /><path
         d="m 3296.69,2232 281.65,162.61 c 11.96,6.91 21.65,1.31 21.65,-12.5 l 0.01,-90.71 c 0,-13.81 -9.7,-30.6 -21.66,-37.5 l -281.65,-162.62 c -11.96,-6.9 -21.65,-1.31 -21.65,12.5 v 90.72 c 0,13.8 9.69,30.59 21.65,37.5"
         style="fill:#ef2b2b;fill-opacity:1;fill-rule:nonzero;stroke:none"
         id="path58" /><path
         d="m 3158.85,2434.63 557.34,321.78 c 14.35,8.29 25.98,1.57 25.98,-15 v -33.75 c 0,-16.58 -11.63,-36.72 -25.99,-45 l -557.34,-321.79 c -14.35,-8.28 -25.98,-1.57 -25.98,15 v 33.76 c 0,16.57 11.63,36.72 25.99,45"
         style="fill:#fafaf9;fill-opacity:1;fill-rule:nonzero;stroke:none"
         id="path60" /><path
         d="m 3208.98,2611.77 14.57,8.42 c 3.57,2.06 6.42,4.78 8.56,8.2 2.13,3.4 3.19,7.8 3.19,13.21 0,5.41 -1.06,8.53 -3.19,9.37 -2.14,0.84 -4.99,0.24 -8.56,-1.84 l -14.57,-8.4 z m 15.04,55.74 c 7.58,4.39 13.48,5.04 17.68,1.96 4.2,-3.08 6.3,-9.93 6.3,-20.54 0,-10.63 -2.1,-19.94 -6.3,-27.96 -4.2,-8.03 -10.1,-14.23 -17.68,-18.61 l -15.04,-8.68 v -32.3 c 0,-1.06 -0.26,-2.12 -0.76,-3.18 -0.5,-1.08 -1.1,-1.8 -1.79,-2.19 l -7.61,-4.39 -1.8,0.11 c -0.5,0.49 -0.75,1.25 -0.75,2.32 v 93.53 c 0,1.06 0.25,2.13 0.75,3.2 0.51,1.05 1.11,1.79 1.8,2.18 l 25.2,14.55"
         style="fill:#fafaf9;fill-opacity:1;fill-rule:nonzero;stroke:none"
         id="path62" /><path
         d="m 3295.11,2644.99 -10.34,35.3 -10.35,-47.23 z m -5.17,60.59 c 1,0.58 1.76,0.61 2.26,0.08 0.51,-0.54 0.95,-1.52 1.32,-2.94 l 23.04,-78.21 0.09,-0.96 c 0,-1.07 -0.25,-2.12 -0.75,-3.18 -0.5,-1.07 -1.09,-1.8 -1.79,-2.19 l -6.77,-3.91 c -1.25,-0.72 -2.13,-0.82 -2.63,-0.3 l -1.04,1.81 -4.04,13.73 -29.72,-17.17 -4.04,-18.4 c -0.19,-0.88 -0.54,-1.88 -1.04,-2.99 -0.5,-1.11 -1.37,-2.02 -2.63,-2.75 l -6.77,-3.91 -1.79,0.14 c -0.5,0.48 -0.75,1.25 -0.75,2.3 l 0.1,1.08 23.04,104.81 c 0.38,1.87 0.81,3.34 1.31,4.45 0.5,1.11 1.25,1.96 2.26,2.53 l 10.34,5.98"
         style="fill:#fafaf9;fill-opacity:1;fill-rule:nonzero;stroke:none"
         id="path64" /><path
         d="m 3351.64,2742.65 c 4.2,2.42 7.9,3.69 11.09,3.79 3.21,0.12 5.86,-0.52 8,-1.9 2.13,-1.37 3.74,-3.32 4.85,-5.82 1.09,-2.5 1.71,-5.11 1.83,-7.84 0.06,-1.12 -0.17,-2.19 -0.7,-3.23 -0.54,-1.02 -1.15,-1.74 -1.84,-2.14 l -6.59,-3.8 c -1.06,-0.62 -1.85,-0.76 -2.39,-0.45 l -1.47,1.68 c -0.93,1.88 -2.35,3.16 -4.26,3.84 -1.93,0.68 -4.76,-0.06 -8.52,-2.24 -1.63,-0.93 -3.18,-2.1 -4.65,-3.47 -1.48,-1.39 -2.77,-2.9 -3.85,-4.55 -1.11,-1.64 -1.97,-3.38 -2.59,-5.18 -0.63,-1.81 -0.94,-3.64 -0.94,-5.47 0,-2.23 0.29,-3.86 0.89,-4.92 0.59,-1.06 1.59,-1.68 3.01,-1.87 1.4,-0.21 3.28,-0.06 5.59,0.41 2.32,0.47 5.21,1.11 8.65,1.95 3.76,0.92 7.01,1.31 9.74,1.19 2.73,-0.12 4.94,-0.85 6.67,-2.22 1.73,-1.37 3.01,-3.36 3.86,-5.95 0.85,-2.61 1.27,-5.88 1.27,-9.84 0,-4.34 -0.63,-8.74 -1.88,-13.18 -1.25,-4.43 -3.04,-8.65 -5.36,-12.65 -2.32,-3.99 -5.16,-7.74 -8.56,-11.24 -3.38,-3.49 -7.18,-6.46 -11.38,-8.88 -3.52,-2.04 -6.87,-3.32 -10.06,-3.85 -3.2,-0.55 -6.03,-0.31 -8.5,0.72 -2.48,1.04 -4.48,2.85 -5.99,5.46 -1.49,2.61 -2.34,5.98 -2.53,10.12 -0.07,1.12 0.18,2.19 0.7,3.23 0.53,1.03 1.15,1.74 1.83,2.14 l 6.59,3.8 c 1.07,0.62 1.88,0.8 2.44,0.54 0.57,-0.25 1.04,-0.85 1.42,-1.77 0.44,-1.02 0.97,-1.97 1.6,-2.85 0.62,-0.89 1.46,-1.52 2.53,-1.87 1.06,-0.35 2.4,-0.37 4,-0.09 1.6,0.3 3.59,1.13 5.97,2.52 1.88,1.08 3.7,2.35 5.46,3.8 1.75,1.44 3.29,3.06 4.61,4.83 1.31,1.77 2.37,3.64 3.19,5.61 0.81,1.97 1.22,4.06 1.22,6.29 0,2.11 -0.44,3.59 -1.31,4.44 -0.88,0.85 -2.21,1.23 -4,1.16 -1.79,-0.05 -3.99,-0.42 -6.63,-1.07 -2.63,-0.64 -5.67,-1.3 -9.12,-1.94 -3.14,-0.65 -5.88,-0.85 -8.23,-0.62 -2.36,0.24 -4.3,1.08 -5.83,2.5 -1.54,1.43 -2.68,3.5 -3.43,6.2 -0.75,2.71 -1.13,6.22 -1.13,10.58 0,4.33 0.63,8.71 1.88,13.08 1.25,4.4 2.98,8.54 5.18,12.41 2.18,3.87 4.8,7.43 7.85,10.68 3.03,3.26 6.32,5.9 9.82,7.93"
         style="fill:#fafaf9;fill-opacity:1;fill-rule:nonzero;stroke:none"
         id="path66" /><path
         d="m 3417.28,2780.54 c 4.2,2.42 7.9,3.69 11.09,3.8 3.2,0.11 5.87,-0.52 8.01,-1.89 2.12,-1.38 3.73,-3.32 4.83,-5.82 1.11,-2.51 1.71,-5.13 1.84,-7.85 0.06,-1.13 -0.17,-2.2 -0.71,-3.23 -0.53,-1.02 -1.15,-1.75 -1.83,-2.14 l -6.59,-3.81 c -1.07,-0.61 -1.86,-0.76 -2.4,-0.45 l -1.45,1.69 c -0.95,1.87 -2.36,3.16 -4.28,3.84 -1.91,0.67 -4.74,-0.06 -8.51,-2.23 -1.63,-0.95 -3.18,-2.11 -4.65,-3.49 -1.49,-1.39 -2.77,-2.89 -3.86,-4.54 -1.1,-1.65 -1.96,-3.38 -2.59,-5.19 -0.62,-1.8 -0.94,-3.63 -0.94,-5.47 0,-2.22 0.3,-3.85 0.89,-4.91 0.6,-1.06 1.6,-1.69 3.01,-1.88 1.42,-0.2 3.28,-0.06 5.6,0.41 2.32,0.47 5.2,1.11 8.65,1.95 3.77,0.92 7,1.31 9.74,1.2 2.72,-0.12 4.95,-0.85 6.67,-2.22 1.72,-1.38 3.01,-3.35 3.85,-5.95 0.85,-2.62 1.27,-5.89 1.27,-9.85 0,-4.33 -0.62,-8.73 -1.87,-13.18 -1.25,-4.44 -3.05,-8.65 -5.36,-12.64 -2.32,-4 -5.17,-7.74 -8.57,-11.25 -3.38,-3.49 -7.18,-6.45 -11.37,-8.87 -3.52,-2.03 -6.87,-3.32 -10.06,-3.86 -3.2,-0.55 -6.04,-0.3 -8.51,0.73 -2.48,1.03 -4.47,2.84 -5.98,5.46 -1.5,2.61 -2.35,5.98 -2.54,10.12 -0.05,1.12 0.18,2.19 0.72,3.22 0.52,1.04 1.13,1.75 1.82,2.15 l 6.59,3.79 c 1.06,0.62 1.87,0.81 2.44,0.54 0.57,-0.24 1.03,-0.84 1.41,-1.77 0.44,-1.01 0.98,-1.96 1.6,-2.85 0.63,-0.88 1.47,-1.51 2.54,-1.86 1.07,-0.35 2.41,-0.37 4,-0.09 1.6,0.31 3.58,1.14 5.97,2.51 1.88,1.09 3.7,2.35 5.45,3.81 1.75,1.44 3.29,3.05 4.61,4.82 1.31,1.78 2.39,3.64 3.21,5.62 0.81,1.96 1.21,4.05 1.21,6.28 0,2.12 -0.44,3.6 -1.31,4.45 -0.88,0.84 -2.22,1.23 -4.01,1.16 -1.77,-0.06 -3.99,-0.42 -6.63,-1.07 -2.62,-0.65 -5.67,-1.3 -9.12,-1.94 -3.12,-0.65 -5.88,-0.86 -8.23,-0.63 -2.34,0.25 -4.3,1.08 -5.82,2.5 -1.54,1.43 -2.69,3.5 -3.44,6.21 -0.75,2.7 -1.12,6.22 -1.12,10.57 0,4.34 0.62,8.71 1.87,13.1 1.25,4.39 2.98,8.52 5.18,12.39 2.19,3.88 4.8,7.44 7.85,10.69 3.05,3.25 6.32,5.89 9.83,7.92"
         style="fill:#fafaf9;fill-opacity:1;fill-rule:nonzero;stroke:none"
         id="path68" /><path
         d="m 3490.17,2768.03 -8.09,-47.96 c -0.31,-1.62 -0.71,-3.03 -1.18,-4.22 -0.47,-1.19 -1.17,-2.06 -2.11,-2.59 l -7.63,-4.41 c -0.93,-0.54 -1.68,-0.52 -2.2,0.11 -0.54,0.6 -0.89,1.58 -1.08,2.91 l -12.05,84.41 -0.09,1.11 c 0,1.06 0.26,2.13 0.75,3.19 0.5,1.05 1.1,1.8 1.79,2.19 l 6.95,4.02 1.8,0.16 c 0.56,-0.26 0.94,-1.05 1.12,-2.4 l 7.91,-56.83 6.96,42.68 c 0.13,0.76 0.42,1.8 0.9,3.13 0.46,1.33 1.26,2.32 2.39,2.98 l 7.7,4.45 c 1.14,0.66 1.94,0.58 2.41,-0.21 l 0.89,-2.08 6.96,-34.65 7.9,65.94 c 0.18,1.57 0.56,2.79 1.13,3.71 l 1.79,1.89 6.95,4.02 1.79,-0.13 c 0.5,-0.48 0.75,-1.25 0.75,-2.32 l -0.09,-1.2 -12.04,-98.32 c -0.19,-1.56 -0.55,-2.95 -1.07,-4.17 -0.54,-1.22 -1.27,-2.11 -2.22,-2.65 l -7.62,-4.4 c -0.94,-0.55 -1.65,-0.5 -2.12,0.15 -0.46,0.65 -0.85,1.6 -1.18,2.87 l -8.07,38.62"
         style="fill:#fafaf9;fill-opacity:1;fill-rule:nonzero;stroke:none"
         id="path70" /><path
         d="m 3579.61,2834.3 c -0.25,6.81 -1.71,11.34 -4.38,13.62 -2.66,2.27 -6.19,2.15 -10.57,-0.39 -4.4,-2.54 -7.92,-6.48 -10.59,-11.83 -2.66,-5.35 -4.13,-11.57 -4.37,-18.66 -0.13,-3.75 -0.2,-7.87 -0.2,-12.36 0,-4.49 0.07,-8.51 0.2,-12.12 0.24,-6.8 1.71,-11.32 4.37,-13.54 2.67,-2.23 6.19,-2.07 10.59,0.46 4.38,2.53 7.91,6.45 10.57,11.74 2.67,5.32 4.13,11.5 4.38,18.61 0.13,3.74 0.19,7.85 0.19,12.34 0,4.49 -0.06,8.53 -0.19,12.13 z M 3537,2810.42 c 0.2,5.51 0.86,11 2.02,16.45 1.17,5.45 2.88,10.59 5.13,15.41 2.26,4.82 5.08,9.26 8.46,13.28 3.4,4.04 7.4,7.38 12.05,10.07 4.57,2.65 8.55,3.92 11.93,3.86 3.39,-0.08 6.21,-1.25 8.47,-3.52 2.26,-2.26 3.97,-5.43 5.17,-9.46 1.19,-4.05 1.88,-8.76 2.08,-14.15 0.05,-1.81 0.1,-3.81 0.13,-6.01 0.03,-2.2 0.05,-4.48 0.05,-6.84 0,-2.37 -0.02,-4.67 -0.05,-6.91 -0.03,-2.25 -0.08,-4.3 -0.13,-6.16 -0.2,-5.53 -0.87,-11 -2.03,-16.45 -1.16,-5.45 -2.87,-10.58 -5.12,-15.41 -2.26,-4.82 -5.1,-9.23 -8.51,-13.24 -3.43,-4 -7.42,-7.32 -11.99,-9.96 -4.65,-2.67 -8.65,-3.99 -12.05,-3.92 -3.38,0.08 -6.2,1.23 -8.46,3.45 -2.25,2.21 -3.96,5.37 -5.13,9.49 -1.16,4.11 -1.82,8.81 -2.02,14.11 -0.06,1.79 -0.11,3.78 -0.13,6 -0.04,2.2 -0.05,4.48 -0.05,6.85 0,2.36 0.01,4.67 0.05,6.9 0.02,2.24 0.07,4.29 0.13,6.16"
         style="fill:#fafaf9;fill-opacity:1;fill-rule:nonzero;stroke:none"
         id="path72" /><path
         d="m 3622.11,2851.74 13.63,7.87 c 3.59,2.06 6.43,4.68 8.57,7.85 2.13,3.15 3.19,7.43 3.19,12.85 0,5.4 -1.06,8.4 -3.19,9.01 -2.14,0.6 -4.98,-0.13 -8.57,-2.2 l -13.63,-7.87 z m 14.11,53.76 c 7.83,4.52 13.78,5.16 17.86,1.92 4.07,-3.26 6.12,-9.85 6.12,-19.79 0,-7.05 -1.05,-13.66 -3.15,-19.84 -2.11,-6.19 -5.19,-11.66 -9.27,-16.43 l 12.98,-28.27 0.29,-1.44 -0.62,-2.59 -1.45,-1.78 -8,-4.61 c -1.25,-0.72 -2.18,-0.8 -2.78,-0.23 l -1.27,1.79 -12.31,26.64 -12.51,-7.23 v -33.73 c 0,-1.07 -0.25,-2.12 -0.75,-3.18 -0.51,-1.07 -1.1,-1.79 -1.79,-2.2 l -7.62,-4.4 -1.78,0.14 c -0.51,0.48 -0.76,1.24 -0.76,2.3 v 93.54 c 0,1.06 0.25,2.13 0.76,3.18 0.5,1.08 1.09,1.8 1.78,2.21 l 24.27,14"
         style="fill:#fafaf9;fill-opacity:1;fill-rule:nonzero;stroke:none"
         id="path74" /><path
         d="m 3718.32,2912.94 c -0.13,3.01 -0.52,5.67 -1.17,7.93 -0.67,2.27 -1.63,4.04 -2.92,5.27 -1.29,1.24 -2.9,1.84 -4.83,1.84 -1.96,-0.02 -4.28,-0.8 -6.97,-2.36 l -12.6,-7.27 v -65.15 l 13.07,7.54 c 2.57,1.48 4.8,3.32 6.68,5.52 1.88,2.19 3.44,4.61 4.7,7.28 1.25,2.66 2.2,5.52 2.87,8.6 0.65,3.08 1.04,6.21 1.17,9.37 0.25,7.29 0.25,14.42 0,21.43 z M 3702.9,2944 c 4.64,2.67 8.66,4.06 12.08,4.16 3.42,0.08 6.27,-0.95 8.57,-3.11 2.28,-2.15 4.03,-5.33 5.26,-9.55 1.22,-4.22 1.95,-9.29 2.21,-15.23 0.25,-6.99 0.25,-14.14 0,-21.43 -0.26,-6.23 -0.99,-12.16 -2.21,-17.78 -1.23,-5.64 -2.96,-10.84 -5.22,-15.62 -2.26,-4.77 -5.06,-9.07 -8.42,-12.89 -3.35,-3.83 -7.28,-7.03 -11.8,-9.64 l -23.7,-13.68 -1.79,0.13 c -0.5,0.48 -0.75,1.24 -0.75,2.31 v 93.54 c 0,1.05 0.25,2.13 0.75,3.18 0.51,1.07 1.1,1.8 1.79,2.2 l 23.23,13.41"
         style="fill:#fafaf9;fill-opacity:1;fill-rule:nonzero;stroke:none"
         id="path76" /><path
         d="m 2281.84,4073.63 c 4.08,-0.91 7.28,-3.18 9.59,-6.81 2.32,-3.64 3.02,-7.49 2.12,-11.58 l -10.87,-49.07 c -0.91,-4.11 -3.18,-7.31 -6.81,-9.61 -3.63,-2.33 -7.48,-3.03 -11.57,-2.13 l -47.96,10.62 c -4.1,0.92 -7.31,3.18 -9.62,6.82 -2.32,3.63 -3.03,7.48 -2.12,11.58 l 10.87,49.09 c 0.91,4.07 3.17,7.28 6.81,9.6 3.64,2.31 7.49,3.02 11.59,2.11 z m 47.83,321.72 c 17.48,-3.88 33.95,-10.06 49.42,-18.56 15.47,-8.49 28.59,-18.9 39.31,-31.23 10.73,-12.31 18.46,-26.31 23.17,-41.99 4.72,-15.66 5.06,-32.62 1.03,-50.83 -3.29,-14.87 -8.48,-27.29 -15.55,-37.22 -7.09,-9.94 -15.21,-18.47 -24.39,-25.6 -9.18,-7.13 -18.87,-13.38 -29.02,-18.73 -10.16,-5.37 -19.78,-10.45 -28.82,-15.26 -9.08,-4.82 -17.28,-10.13 -24.59,-15.91 -7.34,-5.8 -12.46,-12.66 -15.39,-20.59 -1.66,-3.93 -4.11,-7.08 -7.36,-9.47 -3.27,-2.42 -6.94,-3.15 -11.02,-2.25 l -42.4,9.39 c -4.09,0.9 -7.39,3.19 -9.88,6.87 -2.5,3.67 -3.11,7.5 -1.84,11.51 3.96,14.34 9.84,26.4 17.66,36.18 7.82,9.76 16.5,18.18 26.07,25.23 9.56,7.05 19.49,13.13 29.79,18.26 10.29,5.14 19.88,10.13 28.77,14.99 8.87,4.86 16.44,10.01 22.71,15.44 6.28,5.43 10.29,12.06 12.02,19.87 3.12,14.12 -0.25,27.07 -10.13,38.81 -9.88,11.74 -24.68,19.8 -44.39,24.16 -31.6,7.01 -58.34,-3.66 -80.2,-31.97 -2.76,-3.68 -5.4,-6.31 -7.88,-7.9 -2.51,-1.6 -6.18,-1.86 -11.02,-0.78 l -45.16,10 c -3.34,0.74 -5.99,2.5 -7.9,5.26 -1.93,2.77 -2.47,6.01 -1.65,9.73 3.24,12.92 10.19,25.33 20.82,37.22 10.61,11.88 23.57,21.88 38.81,30.02 15.27,8.11 32.33,13.8 51.18,17.04 18.85,3.23 38.12,2.67 57.83,-1.69"
         style="fill:#ef2b2b;fill-opacity:1;fill-rule:nonzero;stroke:none"
         id="path78" /><path
         d="m 2434.74,3707.76 c 2.85,0.45 5.48,-0.18 7.91,-1.91 2.41,-1.75 3.84,-4.04 4.31,-6.88 l 5.6,-34.26 c 0.47,-2.85 -0.17,-5.49 -1.9,-7.9 -1.74,-2.42 -4.04,-3.85 -6.89,-4.31 l -33.47,-5.48 c -2.85,-0.47 -5.48,0.16 -7.9,1.9 -2.42,1.74 -3.85,4.03 -4.32,6.88 l -5.6,34.26 c -0.46,2.84 0.17,5.48 1.91,7.9 1.73,2.42 4.03,3.86 6.88,4.33 l 33.47,5.47 m -51.68,218.49 c 12.19,1.98 24.33,2.25 36.43,0.76 12.09,-1.49 23.16,-4.8 33.2,-9.94 10.03,-5.17 18.56,-12.16 25.59,-21 7.05,-8.85 11.6,-19.63 13.68,-32.32 1.69,-10.39 1.55,-19.68 -0.45,-27.86 -1.99,-8.18 -5.02,-15.74 -9.08,-22.66 -4.06,-6.92 -8.66,-13.4 -13.81,-19.44 -5.13,-6.03 -10,-11.75 -14.57,-17.16 -4.58,-5.41 -8.47,-10.91 -11.69,-16.5 -3.22,-5.58 -4.74,-11.29 -4.59,-17.12 -0.05,-2.95 -0.83,-5.59 -2.29,-7.97 -1.49,-2.37 -3.65,-3.79 -6.49,-4.25 l -29.59,-4.84 c -2.86,-0.47 -5.55,0.16 -8.1,1.88 -2.54,1.71 -3.92,4.01 -4.12,6.91 -1.13,10.21 -0.45,19.44 2.07,27.71 2.5,8.26 5.92,15.89 10.24,22.85 4.32,6.96 9.13,13.41 14.43,19.33 5.29,5.92 10.15,11.58 14.61,16.99 4.44,5.37 7.97,10.61 10.61,15.7 2.63,5.1 3.51,10.36 2.62,15.82 -1.61,9.84 -7.09,17.27 -16.44,22.29 -9.34,4.99 -20.89,6.37 -34.64,4.12 -22.05,-3.6 -36.46,-17.28 -43.24,-41.03 -0.83,-3.06 -1.83,-5.42 -3.03,-7.08 -1.2,-1.67 -3.48,-2.77 -6.85,-3.32 l -31.51,-5.16 c -2.35,-0.38 -4.49,0.07 -6.43,1.35 -1.94,1.29 -3.12,3.23 -3.55,5.82 -1.23,9.11 0.05,18.84 3.83,29.19 3.76,10.34 9.5,20.07 17.2,29.18 7.71,9.12 17.19,17.12 28.44,24.02 11.27,6.91 23.77,11.48 37.52,13.73"
         style="fill:#ef2b2b;fill-opacity:1;fill-rule:nonzero;stroke:none"
         id="path80" /><path
         d="m 2408.5,3646.88 c -2.17,0 -4.2,0.67 -6.1,2.04 -2.42,1.74 -3.85,4.03 -4.32,6.88 l -5.6,34.26 c -0.1,0.6 -0.14,1.19 -0.14,1.77 0,2.18 0.67,4.22 2.05,6.13 1.73,2.42 4.03,3.86 6.88,4.33 l 33.47,5.47 c 0.59,0.1 1.18,0.14 1.76,0.14 2.19,0 4.23,-0.68 6.15,-2.05 2.41,-1.75 3.84,-4.04 4.31,-6.88 l 5.6,-34.26 c 0.1,-0.6 0.15,-1.19 0.15,-1.77 0,-2.18 -0.68,-4.23 -2.05,-6.13 -1.74,-2.42 -4.04,-3.85 -6.89,-4.31 l -33.47,-5.48 c -0.61,-0.09 -1.21,-0.14 -1.8,-0.14 m -10.91,78.92 c -2.2,0 -4.29,0.68 -6.29,2.03 -2.54,1.71 -3.92,4.01 -4.12,6.91 -0.36,3.19 -0.53,6.28 -0.53,9.28 0,6.6 0.87,12.74 2.6,18.43 2.5,8.26 5.92,15.89 10.24,22.85 4.32,6.96 9.13,13.41 14.43,19.33 5.29,5.92 10.15,11.58 14.61,16.99 4.44,5.37 7.97,10.61 10.61,15.7 1.97,3.82 2.96,7.74 2.95,11.76 0,1.34 -0.11,2.69 -0.33,4.06 -1.61,9.84 -7.09,17.27 -16.44,22.29 -6.45,3.45 -13.94,5.17 -22.49,5.17 -3.84,0 -7.88,-0.35 -12.15,-1.05 -22.05,-3.6 -36.46,-17.28 -43.24,-41.03 -0.83,-3.06 -1.83,-5.42 -3.03,-7.08 -1.2,-1.67 -3.48,-2.77 -6.85,-3.32 l -31.51,-5.16 c -0.54,-0.08 -1.07,-0.13 -1.58,-0.13 -1.74,0 -3.35,0.49 -4.85,1.48 -1.94,1.29 -3.12,3.23 -3.55,5.82 -0.29,2.21 -0.44,4.45 -0.45,6.73 -0.01,7.13 1.42,14.62 4.28,22.46 3.76,10.34 9.5,20.07 17.2,29.18 7.71,9.12 17.19,17.12 28.44,24.02 11.27,6.91 23.77,11.48 37.52,13.73 6.99,1.14 13.96,1.71 20.93,1.71 5.17,0 10.34,-0.32 15.5,-0.95 12.09,-1.49 23.16,-4.8 33.2,-9.94 10.03,-5.17 18.56,-12.16 25.59,-21 7.05,-8.85 11.6,-19.63 13.68,-32.32 0.78,-4.79 1.17,-9.34 1.17,-13.66 0,-5.06 -0.54,-9.79 -1.62,-14.2 -1.99,-8.18 -5.02,-15.74 -9.08,-22.66 -4.06,-6.92 -8.66,-13.4 -13.81,-19.44 -5.13,-6.03 -10,-11.75 -14.57,-17.16 -4.58,-5.41 -8.47,-10.91 -11.69,-16.5 -3.07,-5.31 -4.6,-10.75 -4.6,-16.3 0,-0.27 0.01,-0.54 0.01,-0.82 -0.05,-2.95 -0.83,-5.59 -2.29,-7.97 -1.49,-2.37 -3.65,-3.79 -6.49,-4.25 l -29.59,-4.84 c -0.61,-0.1 -1.21,-0.15 -1.81,-0.15"
         style="fill:#ff1d1d;fill-opacity:1;fill-rule:nonzero;stroke:none"
         id="path82" /><path
         d="m 2804.35,4099.52 c 11.92,-8.46 22.37,-18.38 31.31,-29.7 8.95,-11.34 15.52,-23.35 19.66,-36.05 4.16,-12.7 5.52,-25.7 4.09,-39.01 -1.44,-13.32 -6.58,-26.19 -15.43,-38.63 -7.21,-10.16 -15.07,-17.86 -23.56,-23.08 -8.5,-5.24 -17.34,-9.08 -26.53,-11.52 -9.2,-2.45 -18.48,-4.07 -27.82,-4.89 -9.38,-0.79 -18.24,-1.56 -26.6,-2.3 -8.36,-0.74 -16.23,-2.13 -23.58,-4.16 -7.37,-2.02 -13.42,-5.57 -18.15,-10.61 -2.5,-2.43 -5.35,-4.02 -8.57,-4.79 -3.22,-0.77 -6.22,-0.15 -9.01,1.82 l -28.95,20.58 c -2.79,1.98 -4.55,4.75 -5.26,8.32 -0.72,3.57 0.04,6.65 2.28,9.27 7.56,9.54 15.82,16.75 24.84,21.62 9,4.86 18.22,8.44 27.67,10.71 9.44,2.27 18.86,3.7 28.26,4.27 9.39,0.59 18.21,1.3 26.45,2.13 8.23,0.83 15.57,2.3 22.04,4.39 6.45,2.11 11.58,5.82 15.37,11.15 6.86,9.65 8.43,20.46 4.73,32.46 -3.7,11.99 -12.28,22.77 -25.72,32.33 -21.6,15.35 -45.14,15.83 -70.63,1.48 -3.26,-1.9 -6.08,-3.05 -8.46,-3.45 -2.4,-0.4 -5.23,0.57 -8.53,2.91 l -30.85,21.93 c -2.29,1.62 -3.71,3.78 -4.28,6.48 -0.57,2.7 0.06,5.31 1.86,7.85 6.56,8.71 15.74,15.85 27.54,21.42 11.79,5.56 24.72,8.98 38.81,10.24 14.08,1.26 28.73,0.12 43.97,-3.46 15.23,-3.56 29.58,-10.13 43.05,-19.71 m -138.54,-227.11 c 2.79,-2 4.48,-4.72 5.08,-8.2 0.58,-3.48 -0.12,-6.61 -2.1,-9.4 l -23.82,-33.51 c -1.99,-2.8 -4.72,-4.49 -8.19,-5.07 -3.48,-0.59 -6.61,0.11 -9.41,2.09 l -32.74,23.28 c -2.8,2 -4.48,4.71 -5.07,8.19 -0.6,3.49 0.11,6.61 2.1,9.4 l 23.82,33.52 c 1.98,2.79 4.7,4.48 8.19,5.07 3.47,0.58 6.59,-0.11 9.4,-2.1 l 32.74,-23.27"
         style="fill:#ef2b2b;fill-opacity:1;fill-rule:nonzero;stroke:none"
         id="path84" /><path
         d="m 2634.43,3816.03 c -2.55,0 -4.91,0.77 -7.06,2.29 l -32.74,23.28 c -2.8,2 -4.48,4.71 -5.07,8.19 -0.13,0.79 -0.2,1.56 -0.2,2.32 -0.01,2.57 0.76,4.93 2.3,7.08 l 23.82,33.52 c 1.98,2.79 4.7,4.48 8.19,5.07 0.79,0.13 1.57,0.2 2.33,0.2 2.55,0 4.9,-0.77 7.07,-2.3 l 32.74,-23.27 c 2.79,-2 4.48,-4.72 5.08,-8.2 0.13,-0.78 0.19,-1.55 0.19,-2.31 0,-2.57 -0.76,-4.93 -2.29,-7.09 l -23.82,-33.51 c -1.99,-2.8 -4.72,-4.49 -8.19,-5.07 -0.8,-0.13 -1.58,-0.2 -2.35,-0.2 m 52.1,78.43 c -2.24,0 -4.36,0.72 -6.37,2.14 l -28.95,20.58 c -2.79,1.98 -4.55,4.75 -5.26,8.32 -0.18,0.87 -0.26,1.7 -0.26,2.51 0,2.53 0.84,4.78 2.54,6.76 7.56,9.54 15.82,16.75 24.84,21.62 9,4.86 18.22,8.44 27.67,10.71 9.44,2.27 18.86,3.7 28.26,4.27 9.39,0.59 18.21,1.3 26.45,2.13 8.23,0.83 15.57,2.3 22.04,4.39 6.45,2.11 11.58,5.82 15.37,11.15 4.45,6.25 6.67,13 6.68,20.24 0,3.93 -0.65,8 -1.95,12.22 -3.7,11.99 -12.28,22.77 -25.72,32.33 -11.16,7.93 -22.83,11.89 -35.02,11.89 -11.42,0 -23.29,-3.47 -35.61,-10.41 -3.26,-1.9 -6.08,-3.05 -8.46,-3.45 -0.35,-0.06 -0.71,-0.09 -1.08,-0.09 -2.16,0 -4.63,1 -7.45,3 l -30.85,21.93 c -2.29,1.62 -3.71,3.78 -4.28,6.48 -0.13,0.63 -0.2,1.26 -0.2,1.88 -0.01,2.04 0.68,4.03 2.06,5.97 6.56,8.71 15.74,15.85 27.54,21.42 11.79,5.56 24.72,8.98 38.81,10.24 3.69,0.33 7.41,0.49 11.18,0.49 10.61,0 21.54,-1.31 32.79,-3.95 15.23,-3.56 29.58,-10.13 43.05,-19.71 11.92,-8.46 22.37,-18.38 31.31,-29.7 8.95,-11.34 15.52,-23.35 19.66,-36.05 3.09,-9.43 4.63,-19.02 4.64,-28.78 0,-3.39 -0.18,-6.8 -0.55,-10.23 -1.44,-13.32 -6.58,-26.19 -15.43,-38.63 -7.21,-10.16 -15.07,-17.86 -23.56,-23.08 -8.5,-5.24 -17.34,-9.08 -26.53,-11.52 -9.2,-2.45 -18.48,-4.07 -27.82,-4.89 -9.38,-0.79 -18.24,-1.56 -26.6,-2.3 -8.36,-0.74 -16.23,-2.13 -23.58,-4.16 -7.37,-2.02 -13.42,-5.57 -18.15,-10.61 -2.5,-2.43 -5.35,-4.02 -8.57,-4.79 -0.9,-0.22 -1.78,-0.32 -2.64,-0.32"
         style="fill:#ff2727;fill-opacity:1;fill-rule:nonzero;stroke:none"
         id="path86" /><path
         d="m 1921.16,2987.17 h -355.27 v 860.85 c 0,155.68 126.2,281.88 281.87,281.88 h 32.83 c 155.67,0 281.88,-126.2 281.88,-281.88 v -619.54 c 0,-133.28 -108.04,-241.31 -241.31,-241.31"
         style="fill:#17282f;fill-opacity:1;fill-rule:nonzero;stroke:none"
         id="path88" /><path
         d="m 1531.35,914.891 c -2.93,-21.61 -9.13,-46.852 -10.29,-108.039 -1.25,-65.582 -13.3,-88.86 -14.89,-142.692 -1.82,-61.5 8.8,-84.512 33.76,-119.07 24.95,-34.57 90.45,-65.942 118.14,-7.508 28.01,59.137 24.12,96.707 15.27,157.039 -9.15,62.371 -10.32,96.82 -15.62,144.391 -4.67,41.929 -10.27,73.777 -10.27,73.777 l -116.1,2.102"
         style="fill:#17282f;fill-opacity:1;fill-rule:nonzero;stroke:none"
         id="path90" /><path
         d="m 1717.52,1350.59 -216.04,3.92 c 3.21,-144.22 26.13,-304.3 29.87,-439.619 0.7,-25.469 -0.64,-197.922 8.97,-250.332 14.43,-78.739 107.9,-68.11 112.85,-20.989 4.97,47.129 -6.02,248.461 -5.72,269.219 -0.82,86.781 39.85,233.271 61.18,389.051 1.05,7.66 7.9,41.29 8.89,48.75"
         style="fill:#f6879f;fill-opacity:1;fill-rule:nonzero;stroke:none"
         id="path92" /><path
         d="m 1995.04,1027.12 c 0,0 -8.53,4.58 -10.29,-4.52 -2.09,-10.83 -5.21,-33.151 -9.71,-50.928 -6.25,-24.703 -11.45,-65.41 -7.71,-85.543 3.75,-20.141 50.69,-46.047 81.16,-55.41 44.97,-13.797 75.81,-36.348 100.45,-59.528 30.18,-28.402 95.3,-55.242 139.66,-54.921 52.48,0.378 89.07,17.48 106.36,45.582 18.06,29.347 -15.76,31.507 -75.74,70.418 -13.62,8.839 -29.12,18.832 -46.56,30.23 -95.02,62.07 -129.81,95.332 -156.69,157.41 l -120.93,7.21"
         style="fill:#17282f;fill-opacity:1;fill-rule:nonzero;stroke:none"
         id="path94" /><path
         d="m 2116.72,1065.55 c -1.6,44.65 29.02,423.46 29.02,423.46 l -205.17,-93.53 c 43.94,-262.23 53.3,-324.07 54.08,-366.98 -0.34,-1 -1.22,-4.64 -1.16,-10.98 0.18,-50.95 57.68,-78.43 102.53,-112.391 17.72,-13.41 69.24,-53.027 121.3,-79.188 32.59,-16.382 98.77,-17.871 106.96,3.098 -54.58,41.672 -133.95,104.051 -177.36,151.641 -20.73,22.73 -28.6,40.21 -30.2,84.87"
         style="fill:#f6879f;fill-opacity:1;fill-rule:nonzero;stroke:none"
         id="path96" /><path
         d="m 1590.01,2757.72 c -78.77,-172.97 -78.76,-306.74 -65.75,-527.44 11.94,-202.45 30.99,-380.68 30.99,-380.68 -3.05,-35.93 -52.98,-106.02 -59.44,-264.77 -6.04,-148.42 10.22,-337.09 10.22,-337.09 0,0 112.08,-62.13 194.96,0.54 0,0 79.97,381.88 103.4,567.67 20.46,162.14 56,369.29 56,369.29 l 75.28,-368.41 c 0,0 -28.64,-90.83 -35.34,-160.03 -10.58,-109.28 50.53,-323.86 50.53,-323.86 0,0 115.81,-34.56 186.53,28.16 0,0 26.46,348.88 36.33,480.52 13.21,176.28 -14.57,653.52 -36.34,906.16 l -547.37,9.94"
         style="fill:#33535f;fill-opacity:1;fill-rule:nonzero;stroke:none"
         id="path98" /><path
         d="m 1860.39,2185.24 31.11,277.32 c 0,0 139.41,18.63 202.56,78 0,0 -47.45,-86.94 -164.26,-103.82 l -44.99,-258.05 50.86,-361.86 -75.28,368.41"
         style="fill:#17282f;fill-opacity:1;fill-rule:nonzero;stroke:none"
         id="path100" /><path
         d="m 2424.85,2825.86 c 8.7,85 8.35,141.63 7.6,152.52 -3.04,44.02 -10.91,51.17 -72.43,129.15 -83.07,105.28 -153.96,199.9 -228.95,294.05 -53.53,67.21 -109.79,77.55 -164.76,74.51 -38.42,-2.13 36.55,-186.83 74.31,-296.11 l 215.52,-231.81 c 6.63,-9.15 9.68,-20.41 8.57,-31.66 l -13.24,-197.35 64.54,-86.32 c 0,0 97.74,84.26 108.84,193.02"
         style="fill:#f6879f;fill-opacity:1;fill-rule:nonzero;stroke:none"
         id="path102" /><path
         d="m 1758.71,3470.1 v 0 c -41.67,-2.87 -117.48,-9.54 -117.48,-9.54 -43.74,-24.41 -54.79,-44.42 -62.93,-102.51 -3.46,-24.72 16.69,-90.65 33.98,-184.34 l 32.83,-173.74 -3.56,-86.16 c -17.05,-52.57 -55.59,-117.92 -89.54,-214.24 166.96,-93.18 306.99,-96.63 433.98,-80.33 96.84,12.43 148.08,35.87 165.17,59.01 -3.56,95.16 -10.3,153.92 -11.95,253.33 -0.69,41.76 1.82,83.88 3.44,131.94 64.97,53.37 65.7,142.13 30.27,199.5 -82.34,133.29 -162.38,217.21 -215.4,212.91 l -198.81,-5.83"
         style="fill:#ef2b2b;fill-opacity:1;fill-rule:nonzero;stroke:none"
         id="path104" /><path
         d="m 1877.23,2611.73 c -97.83,0 -204.49,20.46 -325.22,87.84 33.95,96.32 72.49,161.67 89.54,214.24 l 3.56,86.16 -32.83,173.74 c -15.98,86.55 -34.38,149.42 -34.37,177.98 0,2.35 0.13,4.47 0.39,6.36 8.14,58.09 19.19,78.1 62.93,102.51 0,0 75.81,6.67 117.48,9.54 v 0 l 198.81,5.83 c 1.3,0.1 2.62,0.16 3.95,0.16 53,0 131.14,-83.06 211.45,-213.07 14.91,-24.15 23.42,-53.85 23.43,-84.14 0,-40.36 -15.08,-81.75 -50.21,-112.4 -1.14,-0.99 -2.31,-1.98 -3.49,-2.96 -1.43,-42.42 -3.55,-80.23 -3.55,-117.23 0,-4.92 0.03,-9.82 0.11,-14.71 1.65,-99.41 8.39,-158.17 11.95,-253.33 -17.09,-23.14 -68.33,-46.58 -165.17,-59.01 -35.16,-4.51 -71.31,-7.51 -108.76,-7.51 m -126.83,528.99 c 0,0 -9.24,-99.49 100.54,-133.42 16.69,-5.15 32.16,-7.33 46.36,-7.33 75.99,0 116.11,62.12 116.11,62.12 0,0 -47.98,-37.23 -111.25,-37.23 -16.5,0 -34.03,2.53 -52.03,8.92 -87.03,30.86 -99.73,106.94 -99.73,106.94"
         style="fill:#ff2727;fill-opacity:1;fill-rule:nonzero;stroke:none"
         id="path106" /><path
         d="m 1897.3,2999.97 c -14.2,0 -29.67,2.18 -46.36,7.33 -109.78,33.93 -100.54,133.42 -100.54,133.42 0,0 12.7,-76.08 99.73,-106.94 18,-6.39 35.53,-8.92 52.03,-8.92 63.27,0 111.25,37.23 111.25,37.23 0,0 -40.12,-62.12 -116.11,-62.12"
         style="fill:#e90b0b;fill-opacity:1;fill-rule:nonzero;stroke:none"
         id="path108" /><path
         d="m 2116.81,3743.19 c -3.28,-144.37 -50.14,-180.06 -73.62,-190.31 -23.49,-10.25 -68.81,-4 -112.79,3.28 v -86.64 c 0,0 50.75,-53.22 46.95,-92.9 -3.89,-39.79 -79.77,-44.2 -136.78,-5.33 -41.61,28.34 -71.33,60.73 -84.29,76.1 -4.73,5.6 -7.28,12.62 -7.28,19.94 v 203.88 c 0,0 -24.09,-25.53 -66.75,3.69 -42.55,29.12 -46.24,83.47 -20.2,114.23 18.56,21.84 65.73,23.38 88.39,-10.56 12.72,-24.92 14.45,-49.94 28.71,-39.58 38.04,27.38 17.64,89.62 63.58,120.38 l 0.2,0.1 c 13.74,7.39 29.32,14.36 46.75,20.41 81.93,28.3 152.89,52.09 170.01,108.07 32.3,-19.17 61.12,-74.44 57.12,-244.76"
         style="fill:#f6879f;fill-opacity:1;fill-rule:nonzero;stroke:none"
         id="path110" /><path
         d="m 1974.28,3633.15 c 0,-10.47 -8.49,-18.95 -18.95,-18.95 -10.47,0 -18.95,8.48 -18.95,18.95 0,10.47 8.48,18.96 18.95,18.96 10.46,0 18.95,-8.49 18.95,-18.96"
         style="fill:#c35363;fill-opacity:1;fill-rule:nonzero;stroke:none"
         id="path112" /><path
         d="m 1942.65,3765.08 c 0.58,-11.45 -7.89,-21.15 -18.9,-21.67 -11.02,-0.52 -20.41,8.33 -20.99,19.77 -0.57,11.45 7.89,21.15 18.91,21.67 11.01,0.52 20.41,-8.33 20.98,-19.77"
         style="fill:#17282f;fill-opacity:1;fill-rule:nonzero;stroke:none"
         id="path114" /><path
         d="m 2094.2,3763.11 c 0.53,-10.41 -7.17,-19.22 -17.19,-19.69 -11.01,-0.53 -18.49,6.53 -19.07,17.97 -0.53,10.4 7.17,19.22 17.18,19.69 10.02,0.48 18.56,-7.56 19.08,-17.97"
         style="fill:#17282f;fill-opacity:1;fill-rule:nonzero;stroke:none"
         id="path116" /><path
         d="m 1916.97,3812.67 c -39.43,0 -54.79,-9.52 -54.79,-33.96 0,-30.21 24.58,-54.79 54.79,-54.79 30.21,0 54.78,24.58 54.78,54.79 0,24.44 -15.36,33.96 -54.78,33.96 z m 0,-99 c -35.86,0 -65.04,29.18 -65.04,65.04 0,44.22 45.57,44.22 65.04,44.22 19.47,0 65.04,0 65.04,-44.22 0,-35.86 -29.18,-65.04 -65.04,-65.04"
         style="fill:#33535f;fill-opacity:1;fill-rule:nonzero;stroke:none"
         id="path118" /><path
         d="m 2082.08,3812.67 c -39.43,0 -54.79,-9.52 -54.79,-33.96 0,-30.21 24.58,-54.79 54.79,-54.79 30.21,0 54.78,24.58 54.78,54.79 0,24.44 -15.36,33.96 -54.78,33.96 z m 0,-99 c -35.86,0 -65.04,29.18 -65.04,65.04 0,44.22 45.57,44.22 65.04,44.22 19.46,0 65.03,0 65.03,-44.22 0,-35.86 -29.17,-65.04 -65.03,-65.04"
         style="fill:#33535f;fill-opacity:1;fill-rule:nonzero;stroke:none"
         id="path120" /><path
         d="m 1992.11,3799.67 3.2,-121.45 63.92,19.8 z"
         style="fill:#f47089;fill-opacity:1;fill-rule:nonzero;stroke:none"
         id="path122" /><path
         d="m 1930.35,3556.19 c -46.43,6.09 -141.95,33.53 -156.84,71.29 0,0 4.96,-23.73 33.5,-48.19 28.53,-24.45 123.34,-52 123.34,-52 v 28.9"
         style="fill:#f47089;fill-opacity:1;fill-rule:nonzero;stroke:none"
         id="path124" /><path
         d="m 1932.55,3858.65 -42.35,-25.82 c -6.94,12.19 -3.08,27.85 8.61,34.98 11.7,7.14 26.81,3.03 33.74,-9.16"
         style="fill:#17282f;fill-opacity:1;fill-rule:nonzero;stroke:none"
         id="path126" /><path
         d="m 2105.1,3829.86 -47.19,16.49 c 4.1,13.3 17.98,20.4 31.02,15.85 13.03,-4.55 20.27,-19.03 16.17,-32.34"
         style="fill:#17282f;fill-opacity:1;fill-rule:nonzero;stroke:none"
         id="path128" /><path
         d="m 1976.87,3773.53 c -2.84,0 -5.12,2.35 -5.12,5.18 0,8.31 16.46,13.69 31.23,13.69 14.77,0 24.31,-5.38 24.31,-13.69 0,-2.83 -2.29,-5.13 -5.13,-5.13 -2.83,0 -5.12,2.3 -5.12,5.13 -0.46,0.94 -5.19,3.44 -14.06,3.44 -8.87,0 -20.51,-2.5 -20.99,-3.53 0,-2.84 -2.29,-5.09 -5.12,-5.09"
         style="fill:#33535f;fill-opacity:1;fill-rule:nonzero;stroke:none"
         id="path130" /><path
         d="m 1857.23,3777.87 -0.58,0.02 -114.31,10.42 c -2.06,1.89 -7.46,7.49 -18.73,12.16 l 134.18,-12.38 c 2.81,-0.31 4.83,-2.86 4.53,-5.67 -0.3,-2.62 -2.52,-4.55 -5.09,-4.55"
         style="fill:#33535f;fill-opacity:1;fill-rule:nonzero;stroke:none"
         id="path132" /><path
         d="m 1387.93,3658.73 c 37.38,49.95 62.87,87.68 96.99,130.49 19.38,24.3 31.76,41.66 50.4,66.6 12.83,17.17 20.34,31.65 34.57,36.97 16,5.98 31.43,17.82 41.72,28.64 7.36,7.73 13.38,16.61 19.73,25.17 21.36,28.79 46.89,54.49 75.52,76.06 30.08,22.68 63.52,39.96 94.39,61.56 18.42,12.89 38.17,34.3 15.76,54.29 -6.69,5.97 -15.2,9.53 -23.95,11.44 -54.41,11.89 -101.9,-6.87 -155.11,-20.48 -23.14,-5.91 -45.89,-13.32 -67.77,-22.89 -10.62,-4.64 -21.21,-9.69 -30.01,-17.22 -13.72,-11.74 -21.93,-28.45 -30.84,-44.15 -23.93,-42.16 -73.5,-79.36 -108.39,-112.17 -40.93,-38.5 -77.51,-73.8 -124.2,-116.28 -42.02,-38.22 -83.13,-73.48 -121.67,-115.23 -31.88,-34.54 -20.28,-61.56 -15.74,-70.9 25.98,-53.43 55.07,-72.59 89.82,-105.7 60.19,-57.34 267.52,-222.27 336.29,-276.72 14.72,-11.65 26.28,-26.76 33.71,-44 l 13.13,-30.5 c 78.4,-14.42 130.71,103.28 65.78,245.01 -10.53,22.99 -27.24,42.57 -47.67,57.46 -81.85,59.7 -242.46,182.55 -242.46,182.55"
         style="fill:#f6879f;fill-opacity:1;fill-rule:nonzero;stroke:none"
         id="path134" /><path
         d="m 1387.93,3658.73 c 0,0 -35.44,-47.39 -95.82,-65.95 0,0 50.01,-12.76 118.46,48.67 l -22.64,17.28"
         style="fill:#f47089;fill-opacity:1;fill-rule:nonzero;stroke:none"
         id="path136" /><path
         d="m 2404.51,2930.21 0.27,-0.02 -12.83,11.05 -0.01,-0.17 c -2.89,2.33 -7.38,3.05 -13.18,1.48 l -138.85,-37.77 c -12.86,-3.5 -26.83,-16.55 -31.19,-29.16 l -99.93,-288.28 c -2.31,-6.69 -1.39,-11.83 1.84,-14.73 l -0.11,-0.04 13.23,-11.38 -0.01,0.16 c 2.88,-2.41 7.42,-3.17 13.3,-1.57 l 138.85,37.76 c 12.87,3.5 26.84,16.56 31.2,29.16 19.63,56.66 80.3,231.64 99.92,288.29 2.46,7.11 1.25,12.46 -2.5,15.22"
         style="fill:#33535f;fill-opacity:1;fill-rule:nonzero;stroke:none"
         id="path138" /><path
         d="m 2121.65,2576.26 99.92,288.29 c 4.36,12.61 18.33,25.65 31.2,29.16 l 138.85,37.76 c 12.86,3.5 19.76,-3.88 15.39,-16.48 -19.62,-56.66 -80.29,-231.63 -99.91,-288.29 -4.37,-12.6 -18.34,-25.66 -31.21,-29.16 l -138.85,-37.76 c -12.86,-3.5 -19.76,3.88 -15.39,16.48"
         style="fill:#ef2b2b;fill-opacity:1;fill-rule:nonzero;stroke:none"
         id="path140" /><path
         d="m 2237.65,2885.7 c -7.23,-5.71 -13.45,-13.57 -16.11,-21.18 l -99.95,-288.2 c -2.16,-6.47 -1.53,-11.54 1.39,-14.46 l -12.43,10.65 0.13,0.13 c -3.3,2.92 -4.19,7.99 -1.9,14.72 l 99.95,288.32 c 2.41,7.11 8.12,14.33 14.84,20.04 l 14.08,-10.02"
         style="fill:#273e47;fill-opacity:1;fill-rule:nonzero;stroke:none"
         id="path142" /><path
         d="m 2366.37,2798.84 c -9.79,-29.37 -44.69,-48.97 -102.04,-62.55 -57.35,-13.59 -89.12,-74.49 -79.86,-93.02 9.27,-18.53 101.94,-35.75 139.01,-30.45 37.07,5.29 74.36,58.88 85.58,75.46 11.22,16.58 24.3,132.39 12.39,148.27 -11.92,15.89 -36.96,13.45 -36.96,13.45 l -18.12,-51.16"
         style="fill:#f47089;fill-opacity:1;fill-rule:nonzero;stroke:none"
         id="path144" /></g></g></svg>
